<svg xmlns="http://www.w3.org/2000/svg" xmlns:xlink="http://www.w3.org/1999/xlink" version="1.1" x="0px" y="0px" viewBox="0 0 64 80" style="enable-background:new 0 0 64 64;" xml:space="preserve"><g><path d="M54.063,52.451c-0.739-2.367-2.184-4.413-4.063-5.923V19c0-9.925-8.075-18-18-18S14,9.075,14,19v27.528   c-1.879,1.511-3.324,3.557-4.063,5.923L6.64,63H57.36L54.063,52.451z M52.155,53.047L54.64,61h-7.194l-0.266-2.124l-1.984,0.248   L45.43,61h-2.797l-1.209-9.673c1.011-0.791,1.831-1.778,2.435-2.894l1.086,8.691l1.984-0.248l-1.314-10.508   C48.69,47.425,51.169,49.894,52.155,53.047z M20,30V19.165C20,16.868,21.868,15,24.165,15h0.593c1.179,0,2.287,0.459,3.121,1.293   C28.964,17.378,30.466,18,32,18c1.557,0,3.021-0.606,4.122-1.708C36.955,15.459,38.063,15,39.242,15h0.593   C42.132,15,44,16.868,44,19.165V30c0,1.337-0.239,2.663-0.672,3.92C41.238,30.384,37.397,28,33,28h-2   c-4.398,0-8.241,2.385-10.33,5.924C20.234,32.67,20,31.359,20,30z M40.856,49.158C40.943,48.654,41,48.141,41,47.615V44h-2v3.615   c0,2.326-1.148,4.421-3,5.7V51h-2v3c0,1.103-0.897,2-2,2s-2-0.897-2-2v-8h-2v7.315c-1.852-1.279-3-3.374-3-5.7V44h-2v3.615   c0,0.526,0.057,1.039,0.144,1.543C21.803,47.814,21,45.982,21,44v-4c0-5.514,4.486-10,10-10h2c5.514,0,10,4.486,10,10v4   C43,45.982,42.197,47.814,40.856,49.158z M22.519,51.286L21.305,61H18.57l1.571-12.568C20.734,49.528,21.533,50.502,22.519,51.286z    M24.391,52.432c0.01,0.005,0.02,0.011,0.03,0.015c0.954,1.488,2.345,2.686,4.056,3.407C29.148,57.124,30.467,58,32,58   s2.852-0.876,3.523-2.146c1.694-0.715,3.078-1.895,4.031-3.364L40.617,61H23.32L24.391,52.432z M44.993,44.095   C44.993,44.063,45,44.032,45,44v-4c0-1.253-0.194-2.46-0.552-3.597c0.563-1.093,0.965-2.265,1.223-3.471   c0.868-0.118,1.661-0.452,2.329-0.958v13.238C47.057,44.716,46.049,44.334,44.993,44.095z M46,30v-4.816   c1.161,0.414,2,1.514,2,2.816c0,1.32-0.863,2.432-2.05,2.831C45.966,30.554,46,30.278,46,30z M32,3c8.822,0,16,7.178,16,16v5.026   c-0.584-0.442-1.257-0.773-2-0.924v-3.936C46,15.766,43.234,13,39.835,13h-0.593c-1.713,0-3.323,0.667-4.534,1.878   c-1.447,1.447-3.969,1.447-5.416,0C28.081,13.667,26.471,13,24.758,13h-0.593C20.766,13,18,15.766,18,19.165v3.936   c-0.743,0.152-1.416,0.482-2,0.924V19C16,10.178,23.178,3,32,3z M18.05,30.831C16.863,30.432,16,29.32,16,28   c0-1.302,0.839-2.402,2-2.816V30C18,30.278,18.034,30.554,18.05,30.831z M16,31.974c0.668,0.506,1.461,0.84,2.329,0.958   c0.258,1.206,0.659,2.378,1.223,3.472C19.194,37.54,19,38.747,19,40v4c0,0.032,0.007,0.063,0.007,0.095   c-1.056,0.239-2.064,0.621-3.007,1.118V31.974z M11.845,53.047c0.986-3.153,3.466-5.622,6.539-6.68L16.555,61H9.36L11.845,53.047z"/><path d="M25.5,27c1.379,0,2.5-1.121,2.5-2.5S26.879,22,25.5,22S23,23.121,23,24.5S24.121,27,25.5,27z M25.5,24   c0.275,0,0.5,0.225,0.5,0.5S25.775,25,25.5,25S25,24.775,25,24.5S25.225,24,25.5,24z"/><path d="M38.5,27c1.379,0,2.5-1.121,2.5-2.5S39.879,22,38.5,22S36,23.121,36,24.5S37.121,27,38.5,27z M38.5,24   c0.275,0,0.5,0.225,0.5,0.5S38.775,25,38.5,25S38,24.775,38,24.5S38.225,24,38.5,24z"/><rect x="28" y="42" width="2" height="2"/><rect x="34" y="42" width="2" height="7"/><rect x="23" y="40" width="2" height="2"/><rect x="39" y="40" width="2" height="2"/><path d="M32,37c-2.8,0-2.99-1.678-3-2.014L28,35h-1c0,1.384,1.045,4,5,4s5-2.616,5-4h-2C35,35.082,34.966,37,32,37z"/></g></svg>