<svg xmlns="http://www.w3.org/2000/svg" xmlns:xlink="http://www.w3.org/1999/xlink" version="1.1" x="0px" y="0px" viewBox="0 0 100 125" enable-background="new 0 0 100 100" xml:space="preserve"><path fill="#000000" d="M49.668,61.911c7.386,0,14.233,1.704,16.831,4.444l-0.014-8.639c-0.422-2.803-7.371-5.537-16.817-5.537  c-9.447,0-16.381,2.734-16.805,5.537l-0.013,8.637C35.446,63.615,42.284,61.911,49.668,61.911z M64.621,54.044  c0.368,0.205,0.71,0.424,1.021,0.655c0.892-8.628,2.442-25.529,2.215-36.517c-0.062-3.033-0.131-5.665-0.201-7.937l-0.908-0.938  c-0.025,1.288-0.074,3.459-0.152,6.256c-0.096,7.534-0.425,14.799-0.834,21.244C65.465,42.521,65.091,48.47,64.621,54.044z   M62.272,53.016c0.354,0.125,0.703,0.258,1.039,0.397c0.426-4.278,0.932-10.033,1.354-16.656c0.066-1.302,0.131-2.593,0.188-3.863  c0.313-6.695,0.519-12.841,0.646-17.353c0.023-1.934,0.031-3.885,0.021-5.845L64.491,9.15  C64.179,16.121,63.206,35.469,62.272,53.016z M57.829,51.889c1.128,0.204,2.275,0.459,3.365,0.78  C62.25,32.812,63.351,10.759,63.485,7l-4.303-1.234C59.084,10.024,58.544,32.637,57.829,51.889z M53.005,51.26  c0.95,0.08,2.034,0.196,3.174,0.359c0.894-21.204,1.609-45.836,1.609-45.836l-4.051-0.892C53.606,10.778,53.104,34.258,53.005,51.26  z M47.815,51.155c0.951-0.058,1.621-0.071,1.853-0.071c0.261,0,1.085,0.018,2.245,0.096c0.105-17.976,0.656-43.088,0.746-47.137  h-5.518c-0.004,0.785-0.015,3.533-0.015,7.482C47.323,22.634,47.657,42.083,47.815,51.155z M42.515,51.717  c1.404-0.223,2.749-0.367,3.888-0.463c-0.146-5.901-0.236-12.63-0.293-19.129c-0.063-7.812-0.079-15.29-0.077-20.598l-0.125-7.033  l-5.574,1.005l0.018,0.779c0.057,1.961,0.204,6.849,0.413,13.08c0.019,0.052,0.03,0.111,0.034,0.176  C40.798,19.533,41.571,35.473,42.515,51.717z M36.605,53.186c1.363-0.517,2.889-0.908,4.403-1.203  c-0.841-16.006-1.535-38.332-1.727-44.792c-0.01-0.041-0.021-0.077-0.023-0.118c-0.009-0.084-0.03-0.624-0.03-0.624  c-0.002-0.04,0.001-0.076,0.005-0.111l-0.014-0.181l-4.785,1.819c0.01,0.043,0.018,0.088,0.021,0.139  C34.454,8.115,35.478,35.116,36.605,53.186z M33.912,54.552c0.321-0.225,0.669-0.434,1.042-0.629  c-0.881-16.014-1.569-40.355-1.722-45.976l-2.384,2.14c0.07,3.345,0.183,7.248,0.354,11.791  C31.741,36.196,32.985,47.611,33.912,54.552z M44.7,63.271c-0.468,0.051-0.929,0.109-1.376,0.174  c-0.297,0.68-0.536,1.357-0.71,2.013c0.291-0.394,0.617-0.771,0.974-1.144C43.931,63.956,44.302,63.609,44.7,63.271z M51.192,63.027  c-0.5-0.012-1.008-0.021-1.524-0.021c-0.668,0-1.323,0.013-1.968,0.038c-0.209,0.4-0.389,0.803-0.545,1.204  c0.285-0.115,0.597-0.22,0.919-0.323c0.45-0.144,0.95-0.285,1.487-0.439C50.077,63.343,50.624,63.191,51.192,63.027z M64.103,83.021  c-1.254,5.492-3.119,10.846-9.307,12.516c-1.217,0.331-1.791,0.67-2.8,1.25c-0.698,0.396-1.651,0.4-2.429,0.406  c-2.885-0.02-2.545-0.936-5.213-1.656c-6.426-1.732-7.876-6.93-9.123-12.495c-0.033,0.008-0.067,0.01-0.102,0.013  c-0.688,0.141-1.339,0.027-1.965-0.384c-0.714-0.464-1.371-1.285-2.06-2.432c-0.446-0.742-0.882-1.511-1.197-2.312  c-0.495-1.263-0.689-2.569-0.507-3.629c0.278-1.623,1.458-2.448,3.019-2.176c0.164,0.028,0.327,0.069,0.487,0.124  c-0.211-0.616-0.405-1.23-0.583-1.846c-0.376-0.555-0.591-1.154-0.591-1.797l0.036-10.963c0.095-0.727,0.405-1.371,0.875-1.945  c-0.828-7.153-1.985-19.093-2.537-33.779c-0.175-4.664-0.289-8.654-0.359-12.06c0-0.07,0.131-0.373,0.183-0.419l3.451-3.1  c0.434-0.387,0.9-0.188,0.914,0.394l0.004,0.12c2.447-0.957,4.042-1.698,4.974-1.941c0.07-0.215,0.196-0.371,0.405-0.409  c0.346-0.061,4.289-1.33,6.299-1.299c0.1-0.153,0.271-0.255,0.459-0.255h6.785c0.299,0,0.555,0.259,0.545,0.561l-0.004,0.266  l4.418,0.956c0.457-0.721,2.854,0.425,6.018,1.332c0.188,0.052,0.4,0.343,0.396,0.537c-0.005,0.211-0.021,0.658-0.049,1.315  c0.27,0.114,0.715,0.304,1.123,0.528l0.01-0.475c0.032-1.916,3.047,1.453,3.066,2.031c0.072,2.322,0.145,5.027,0.207,8.161  c0.23,11.117-1.225,28.877-2.04,37.808c0.356,0.503,0.588,1.061,0.671,1.674l0.018,11.055c-0.053,0.554-0.26,1.076-0.596,1.563  c-0.193,0.687-0.41,1.375-0.646,2.06c0.197-0.078,0.398-0.145,0.604-0.185c0.704-0.137,1.515-0.021,2.087,0.435  c0.729,0.58,1,1.584,0.986,2.636c-0.01,0.719-0.152,1.504-0.416,2.288c-0.314,0.938-0.801,1.81-1.305,2.658  c-0.746,1.252-1.447,2.131-2.224,2.588c-0.354,0.209-0.723,0.334-1.112,0.365c-0.234,0.016-0.469,0-0.707-0.045L64.103,83.021z   M36.035,82.369c1.188,5.365,2.374,10.6,8.561,12.271c1.293,0.344,1.942,0.715,3.022,1.334c0.5,0.289,1.402,0.283,1.951,0.286  c1.396-0.01,1.469,0.003,2.514-0.631c0.484-0.293,1.178-0.646,2.473-0.989c5.955-1.608,7.572-7.023,8.746-12.309  c0.066-0.309,0.336-0.407,0.566-0.354l0.04,0.013c0.1,0.028,0.353,0.103,0.478,0.142c0.188,0.044,0.359,0.057,0.521,0.044  c0.234-0.021,0.467-0.095,0.709-0.235c0.562-0.336,1.168-1.039,1.898-2.267c0.471-0.792,0.93-1.604,1.223-2.479  c0.236-0.703,0.359-1.396,0.367-2.003c0.012-0.93-0.238-1.579-0.635-1.893c-0.354-0.283-0.9-0.335-1.33-0.25  c-0.586,0.114-1.219,0.508-1.814,1.248c-0.045,0.065-0.104,0.114-0.172,0.143c-0.115,0.049-0.25,0.045-0.369,0  c-0.094-0.037-0.176-0.102-0.229-0.188c0.135-0.388,0.27-0.751,0.401-1.077c0.116-0.355,0.153-0.688,0.153-0.688l0.096-1.094  c0.07,0.336,0.134,0.674,0.172,1.017c0.66-1.354,0.926-2.819,0.987-4.319c-0.22-0.544-0.681-1.081-1.353-1.591  c-0.078,0.519-0.152,1.065-0.213,1.615c-0.107,0.914,0.08,1.797,0.275,2.682c-0.121-0.184-0.321-0.312-0.571-0.346  c-0.183-0.019-0.366-0.038-0.556-0.06c-0.258-1.414-0.07-2.971,0.197-4.47c-2.209-1.288-5.834-2.331-10.324-2.735  c-0.283,0.101-0.562,0.188-0.842,0.275c-1.109,0.354-2.197,0.648-3.164,0.92c-0.529,0.149-1.021,0.288-1.455,0.426  c-0.861,0.274-1.406,0.516-1.65,0.723c-0.057,0.074-0.135,0.127-0.219,0.152c-0.137,0.049-0.273,0.022-0.387-0.045  c-0.113-0.062-0.203-0.172-0.228-0.312c-0.021-0.092-0.013-0.188,0.031-0.281c0.181-0.645,0.418-1.296,0.722-1.943l-0.227,0.018  c-0.131,0.092-0.26,0.188-0.383,0.283c-0.66,0.503-1.249,1.021-1.765,1.559c-0.922,0.96-1.603,1.969-2.011,2.99  c-0.024,0.109-0.084,0.191-0.161,0.25c-0.108,0.09-0.25,0.111-0.379,0.086c-0.13-0.026-0.25-0.107-0.321-0.219  c-0.051-0.082-0.075-0.185-0.057-0.297c0.015-1.264,0.338-2.705,0.912-4.153c-0.733,0.131-1.433,0.278-2.095,0.442  c-0.11,0.113-0.218,0.23-0.321,0.35l-0.128,0.148c-0.6,0.702-1.073,1.428-1.401,2.162c-0.252,0.564-0.925,0.402-0.891-0.214  c0.028-0.53,0.077-1.094,0.162-1.672c-0.856,0.315-1.614,0.661-2.254,1.026c0.267,1.527,0.459,3.1,0.201,4.523  c-0.22,0.021-0.435,0.041-0.646,0.066c-0.19,0.025-0.341,0.104-0.454,0.208c0.184-0.839,0.346-1.679,0.246-2.544  c-0.066-0.578-0.144-1.147-0.225-1.691c-0.633,0.465-1.09,0.955-1.347,1.451c0.043,1.574,0.302,3.119,0.993,4.535  c0.027-0.24,0.066-0.477,0.111-0.715l0.071,0.791c0,0,0.035,0.332,0.151,0.688c0.154,0.377,0.299,0.761,0.439,1.144  c-0.183,0.179-0.515,0.188-0.69-0.012c-0.016-0.014-0.029-0.029-0.042-0.048c-0.588-0.729-1.245-1.11-1.859-1.219  c-1.066-0.187-1.756,0.312-1.945,1.414c-0.146,0.849,0.005,1.979,0.456,3.129c0.296,0.756,0.71,1.478,1.128,2.171  c0.673,1.117,1.239,1.789,1.768,2.135c0.464,0.301,0.915,0.365,1.46,0.207c0.023-0.01,0.05-0.019,0.083-0.027  c0.074-0.021,0.17-0.041,0.292-0.06C35.725,81.973,35.971,82.076,36.035,82.369z M49.687,74.869c-0.998,0-1.373,1.906-2.03,3.188  c-0.248,0.48-0.623,1.166-1.136,1.775c-0.56,0.652-1.298,1.212-2.689,1.293c-0.922,0.082-2.222,0.04-3.697-0.279  c-1.241-0.248-1.847-0.643-2.218-1.053c-1.27-1.398-1.926-4.191-2.987-6.809c-0.095-0.289-0.119-0.549-0.119-0.549l-0.102-1.139  c0,0-0.041-0.266,0.227-0.3c1.548-0.177,3.361-0.294,5.09-0.289c5.204,0.009,6.89,1.205,9.664,1.336  c2.772-0.131,4.457-1.327,9.662-1.336c1.729-0.005,3.543,0.112,5.09,0.289c0.268,0.034,0.227,0.3,0.227,0.3l-0.1,1.139  c0,0-0.025,0.26-0.12,0.549c-1.062,2.615-1.718,5.41-2.987,6.809c-0.371,0.41-0.977,0.805-2.219,1.053  c-1.475,0.319-2.773,0.361-3.696,0.279c-1.39-0.081-2.131-0.641-2.688-1.293c-0.516-0.609-0.887-1.295-1.135-1.775  C51.06,76.775,50.687,74.869,49.687,74.869z M37.153,73.979c-0.123,1.959,0.746,4.946,2.342,5.744  c1.128,0.562,3.684,0.715,4.84,0.49c1.98-0.184,3.104-4.281,3.335-5.07c0.257-0.881,0.544-2.134-2.236-2.502  C42.784,72.288,37.296,71.704,37.153,73.979z M62.22,73.979c-0.145-2.274-5.631-1.69-8.281-1.338  c-2.778,0.368-2.494,1.621-2.235,2.502c0.229,0.789,1.354,4.888,3.336,5.07c1.155,0.225,3.713,0.07,4.839-0.49  C61.476,78.926,62.343,75.938,62.22,73.979z M45.888,76.35c-0.557-0.529-1.283-0.97-2.079-1.271c0.053,0.232,0.049,0.48-0.021,0.725  c-0.219,0.768-1.019,1.211-1.787,0.986c-0.766-0.217-1.209-1.016-0.99-1.783c0.037-0.129,0.092-0.25,0.159-0.359  c-0.954,0.049-1.867,0.348-2.588,0.965c-0.497,0.424-1.132-0.319-0.637-0.742c2.413-2.062,6.47-1.27,8.617,0.771  C47.035,76.089,46.36,76.798,45.888,76.35z M52.745,75.639c2.146-2.039,6.203-2.832,8.615-0.771  c0.496,0.423-0.141,1.166-0.637,0.743c-0.722-0.618-1.635-0.916-2.588-0.967c0.065,0.11,0.118,0.231,0.157,0.36  c0.22,0.769-0.224,1.565-0.991,1.783c-0.767,0.224-1.566-0.22-1.787-0.986c-0.068-0.243-0.072-0.491-0.019-0.723  c-0.797,0.301-1.522,0.741-2.08,1.271C52.942,76.798,52.269,76.089,52.745,75.639z M42.395,69.162  c1.654,0.268,3.143,1.051,4.024,1.787c-2.112-0.43-4.12-0.785-6.394-0.79c-0.875-0.003-1.772,0.03-2.648,0.081  C37.815,69.518,39.925,68.768,42.395,69.162z M56.911,69.162c2.463-0.395,4.572,0.35,5.014,1.072  c-0.852-0.047-1.726-0.078-2.576-0.075c-2.656,0.006-4.414,0.315-5.863,0.637c-0.19,0.045-0.383,0.087-0.575,0.134  C53.794,70.195,55.271,69.425,56.911,69.162z M46.403,83.169c0,0,0.057-0.063,0.164-0.146c0.549-0.4,1.22-0.32,1.764,0.088  c0.244,0.181,0.505,0.309,1.34,0.309c0.84,0,1.117-0.128,1.357-0.309c0.566-0.428,1.434-0.508,1.928,0.058  c0.418,0.459-0.268,1.087-0.688,0.631c-0.242-0.178-0.478-0.096-0.683,0.054l-0.065,0.053c-0.021,0.021-0.045,0.043-0.072,0.066  c-0.551,0.416-0.984,0.848-1.754,0.846c-0.769,0.002-1.211-0.426-1.76-0.846c-0.064-0.045-0.113-0.078-0.162-0.119  c-0.241-0.177-0.447-0.226-0.683-0.054C46.672,84.256,45.983,83.628,46.403,83.169z M56.172,87.355l-0.034,0.021l-0.037,0.021  l-0.039,0.021c-1.778,1.002-1.772,1.697-3.084,2.826c-0.729,0.627-1.635,0.956-3.312,0.956c-3.441,0-3.367-1.298-5.314-3.101  c-0.343-0.318-0.798-0.527-1.191-0.744c-0.14-0.043-0.232-0.066-0.301-0.097c-0.577-0.231-0.231-1.094,0.347-0.864  c1.196,0.48,11.725,0.48,12.92,0c0.576-0.229,0.924,0.633,0.348,0.864c-0.068,0.029-0.16,0.054-0.271,0.081L56.172,87.355z   M45.101,87.561c0.305,0.268,0.61,0.563,1,0.933c1.107,1.063,1.987,1.048,3.564,1.048c2.445,0,2.773-0.266,3.835-1.307  c0.181-0.221,0.384-0.443,0.634-0.666C51.575,87.729,47.623,87.727,45.101,87.561z M31.446,74.789  c1.291-0.318,2.55,1.111,3.198,2.752c0.052,0.125,0.61,1.424-0.263,1.494c-0.399,0.029-0.855-0.432-1.015-0.987  c-0.103-0.358-0.059-0.68,0.092-0.866c-0.601-1.104-1.373-1.591-1.79-1.486C31.066,75.843,30.841,74.938,31.446,74.789z   M67.933,74.789c0.604,0.148,0.381,1.054-0.223,0.904c-0.417-0.104-1.188,0.385-1.789,1.488c0.15,0.187,0.195,0.506,0.092,0.865  c-0.16,0.557-0.615,1.018-1.014,0.987c-0.874-0.07-0.316-1.369-0.266-1.494C65.382,75.9,66.644,74.471,67.933,74.789z"/></svg>