<svg xmlns="http://www.w3.org/2000/svg" xmlns:xlink="http://www.w3.org/1999/xlink" version="1.1" x="0px" y="0px" viewBox="0 0 100 125" enable-background="new 0 0 100 100" xml:space="preserve"><path fill="#000000" d="M52.908,57.926c-0.09-0.014-0.16-0.043-0.215-0.082c-0.562-0.072-1.508-0.143-2.051-0.143  c-0.543,0-1.49,0.07-2.052,0.143c-0.055,0.039-0.126,0.068-0.214,0.082C47.91,58,47.8,57.299,48.268,57.227  c0.094-0.018,0.177-0.008,0.243,0.021c0.586-0.074,1.566-0.146,2.131-0.146c0.563,0,1.543,0.071,2.131,0.146  c0.065-0.027,0.147-0.037,0.244-0.021C53.482,57.299,53.374,58,52.908,57.926z M50.075,58.574c0.188,0.008,0.376,0.012,0.569,0.012  c0.205,0,0.394-0.004,0.582-0.012l-0.287,3.93c-0.061,0.969-0.187,1.344-0.28,1.371c-0.11-0.027-0.237-0.402-0.296-1.371  L50.075,58.574z M52.9,79.512l0.188-0.176l0.031,0.137l-0.288,0.271l-0.203,0.188l-0.133-0.039L52.9,79.512z M53.016,82.148  l0.594-0.556l0.031,0.138l-0.492,0.457L53.016,82.148z M52.139,82.006l1.685,0.514l0.03,0.138l-1.75-0.535l-0.065-0.021  l-0.031-0.137L52.139,82.006z M52.727,80.088l0.575,0.174l0.031,0.137l-0.642-0.196l-1.176-0.357l-0.031-0.135L52.727,80.088z   M52.654,80.316l0.709,0.217l0.215,0.926l-0.695,0.648l-0.709-0.217l-0.199-0.062l-0.215-0.927l0.695-0.647L52.654,80.316z   M52.762,79.971l0.389-0.361l0.119,0.519L52.762,79.971z M53.672,81.867l0.12,0.518l-0.51-0.156L53.672,81.867z M52.323,80.217  l-0.595,0.553l-0.029-0.137l0.49-0.459L52.323,80.217z M51.668,80.498l-0.121-0.52l0.512,0.155L51.668,80.498z M52.578,82.391  l-0.354,0.33l-0.104-0.258l-0.054-0.227L52.578,82.391z M53.404,84.363l-0.588-0.176l-0.447-1.109l0.607-0.564l0.907,0.277  l0.216,0.926L53.404,84.363z M53.1,84.648l-0.07,0.065l-0.038-0.1L53.1,84.648z M53.365,84.73l-0.24,0.225l-0.047-0.121l0.154-0.145  L53.365,84.73z M53.538,84.406l0.593-0.555l0.031,0.137l-0.492,0.459L53.538,84.406z M52.844,82.475l-0.521,0.484l-0.048-0.119  l0.437-0.406L52.844,82.475z M48.264,91.186l-0.33-0.1L47.72,90.16l0.121-0.113L48.264,91.186z M48.148,92.012l-0.12-0.521  l0.395,0.12l0.039,0.107L48.148,92.012z M48.552,91.961l-0.342,0.32l-0.03-0.135l0.328-0.306L48.552,91.961z M47.795,89.924  l-0.107,0.1l-0.03-0.133l0.092-0.09L47.795,89.924z M49.145,93.553l-0.49-0.15l-0.2-0.059l-0.214-0.926l0.357-0.334L49.145,93.553z   M48.37,91.471l-0.374-0.115l-0.032-0.135l0.352,0.107L48.37,91.471z M48.619,93.52l0.578,0.174l0.054,0.146l-0.667-0.205  l-0.067-0.02l-0.031-0.136L48.619,93.52z M48.668,94.268l-0.119-0.52l0.51,0.158L48.668,94.268z M49.979,95.789l-0.094,0.088  L48.976,95.6l-0.214-0.924l0.595-0.555L49.979,95.789z M49.189,96.525l-0.12-0.521l0.51,0.156L49.189,96.525z M49.846,96.244  l-0.593,0.553l-0.032-0.135l0.493-0.459L49.846,96.244z M49.311,93.998l-0.579,0.541L48.7,94.404l0.492-0.457l0.113,0.035  L49.311,93.998z M47.468,89.604l0.948,4.104l0.062,0.272l0.716,3.104l0.132,0.035l-0.043-0.188l0.484-0.451l0.13-0.346l-0.858-0.264  l-0.032-0.135l0.933,0.285l0.064-0.17l0.321,0.86L49.88,97.9l-5.649-1.606c0,0,1.216-3.211,3.031-7.812l0.314,0.847l0.13,0.351  l-0.078,0.073l-0.081-0.351L47.468,89.604z M49.062,97.045l-0.654-2.836l-0.125-0.541l-0.894-3.869l-0.077,0.199l0.008,0.039  l-0.039,0.037l-0.102,0.26l0.171-0.162l0.032,0.137l-0.305,0.285l-0.125,0.316l0.611,0.189l0.032,0.135l-0.687-0.211l-0.044,0.112  l0.762,0.232l0.214,0.926l-0.694,0.649l-0.881-0.271l-0.094,0.242l0.027,0.115l0.791,3.422l0.132,0.039l-0.054-0.236l0.694-0.647  l0.199,0.061l0.708,0.217l0.214,0.926l-0.151,0.142l0.135,0.037l0.048-0.041l0.014,0.061L49.062,97.045z M46.858,96.418  l-0.762-3.303l-0.078,0.201l0.129,0.559l-0.54,0.504l-0.11,0.283l0.894,0.273l0.032,0.137l-0.968-0.297l-0.144,0.373l0.234-0.219  l0.908,0.276l0.214,0.928l-0.191,0.177l0.136,0.037L46.7,96.27l0.025,0.111L46.858,96.418z M47.026,90.809l0.388-0.365l0.121,0.521  L47.026,90.809z M47.546,93.064l0.39-0.363l0.12,0.52L47.546,93.064z M46.271,92.799l1.817,0.557l0.03,0.138l-1.816-0.558  L46.271,92.799z M47.28,92.982l0.594-0.551l0.032,0.135l-0.493,0.457L47.28,92.982z M48.15,93.627l0.188,0.812l0.026,0.115  l-0.086,0.075l-0.61,0.57l-0.908-0.279l-0.214-0.926l0.695-0.646L48.15,93.627z M46.974,95.848l-0.12-0.518l0.509,0.156  L46.974,95.848z M46.453,93.59l-0.12-0.518l0.509,0.154L46.453,93.59z M47.629,95.566l-0.593,0.553l-0.03-0.135l0.491-0.459  L47.629,95.566z M47.109,93.309l-0.594,0.553l-0.032-0.135l0.492-0.459L47.109,93.309z M48.067,95.322l0.39-0.363l0.121,0.518  L48.067,95.322z M48.033,95.438l0.576,0.177l0.031,0.135l-0.643-0.194l-1.175-0.359l-0.03-0.135L48.033,95.438z M48.208,94.863  l0.187-0.174l0.031,0.135l-0.288,0.27l-0.204,0.189L47.8,95.24L48.208,94.863z M45.852,94.645l0.39-0.362l0.121,0.52L45.852,94.645z   M45.586,94.564l0.594-0.554l0.03,0.136l-0.491,0.457L45.586,94.564z M48.231,49.325c-0.362-0.341-0.832-0.626-1.347-0.821  c0.035,0.15,0.033,0.31-0.013,0.468c-0.142,0.497-0.66,0.783-1.156,0.64c-0.497-0.141-0.784-0.659-0.641-1.155  c0.023-0.083,0.058-0.162,0.103-0.233c-0.619,0.033-1.208,0.226-1.677,0.624c-0.32,0.274-0.732-0.208-0.41-0.481  c1.561-1.333,4.186-0.82,5.575,0.5C48.972,49.157,48.536,49.617,48.231,49.325z M52.666,48.867c1.391-1.32,4.016-1.834,5.576-0.5  c0.32,0.273-0.09,0.755-0.411,0.481c-0.468-0.398-1.058-0.591-1.675-0.624c0.043,0.071,0.078,0.149,0.102,0.233  c0.145,0.496-0.145,1.014-0.641,1.155c-0.496,0.143-1.014-0.143-1.156-0.64c-0.045-0.158-0.047-0.318-0.014-0.467  c-0.514,0.195-0.983,0.479-1.344,0.821C52.797,49.617,52.359,49.157,52.666,48.867z M62.497,48.315  c0.392,0.097,0.245,0.683-0.146,0.586c-0.27-0.067-0.77,0.249-1.158,0.963c0.099,0.121,0.127,0.327,0.06,0.56  c-0.103,0.36-0.397,0.659-0.655,0.639c-0.565-0.045-0.203-0.886-0.172-0.966C60.846,49.037,61.662,48.11,62.497,48.315z   M38.884,48.315c0.835-0.205,1.651,0.721,2.069,1.782c0.034,0.081,0.396,0.922-0.171,0.967c-0.258,0.02-0.552-0.279-0.656-0.64  c-0.066-0.233-0.039-0.439,0.06-0.56c-0.389-0.715-0.888-1.031-1.157-0.963C38.638,48.998,38.493,48.412,38.884,48.315z   M55.363,44.675c1.783-0.285,3.277,0.349,3.301,0.857c0.039,0.849-0.084,0.606-0.775,0.441c-0.973-0.231-1.809-0.222-2.518-0.084  c-0.678,0.104-1.469,0.36-2.379,0.868c-0.692,0.385-0.814,0.668-0.775-0.193C52.24,46.062,53.667,44.947,55.363,44.675z   M45.968,44.675c1.697,0.271,3.124,1.386,3.146,1.889c0.039,0.861-0.083,0.578-0.776,0.193c-0.91-0.508-1.701-0.764-2.379-0.868  c-0.707-0.138-1.543-0.147-2.516,0.084c-0.692,0.165-0.815,0.407-0.775-0.441C42.691,45.024,44.186,44.39,45.968,44.675z   M48.573,53.734c0,0,0.036-0.041,0.105-0.09c0.356-0.263,0.789-0.211,1.142,0.055c0.157,0.115,0.327,0.197,0.868,0.197  c0.543,0,0.723-0.082,0.877-0.197c0.369-0.275,0.93-0.326,1.248,0.035c0.271,0.297-0.174,0.705-0.443,0.408  c-0.157-0.115-0.311-0.062-0.442,0.037l-0.042,0.03c-0.014,0.017-0.029,0.029-0.048,0.045c-0.354,0.271-0.637,0.55-1.135,0.547  c-0.497,0.003-0.783-0.276-1.138-0.547c-0.042-0.028-0.074-0.053-0.105-0.075c-0.156-0.117-0.29-0.148-0.441-0.037  C48.746,54.439,48.3,54.031,48.573,53.734z M51.316,62.193c0.281-0.029,0.449-0.105,0.797-0.312  c0.328-0.219,0.693-0.539,0.754-0.613c0.156-0.19,0.395-0.121,0.494,0.037c0.145-0.047,0.302-0.094,0.477-0.141  c0.654-0.178,1.229-0.426,1.732-0.73c0.002,0.232-0.006,0.467-0.021,0.707c-0.466,0.244-0.981,0.449-1.555,0.604  c-0.79,0.215-1.16,0.435-1.812,0.81c-0.267,0.147-0.584,0.215-0.904,0.239c0.006-0.104,0.008-0.194,0.012-0.264L51.316,62.193z   M47.891,61.314c0.096-0.164,0.341-0.242,0.5-0.047c0.062,0.075,0.442,0.43,0.775,0.653l0.183,0.104  c0.166,0.097,0.399,0.144,0.635,0.164l0.024,0.334c0.005,0.068,0.008,0.16,0.014,0.263c-1.253-0.123-1.265-0.634-2.785-1.043  c-0.521-0.142-0.992-0.316-1.417-0.523c-0.016-0.233-0.026-0.471-0.029-0.698c0.467,0.264,0.999,0.477,1.604,0.643  C47.578,61.213,47.74,61.262,47.891,61.314z M55.025,64.471l-0.028,0.008c-0.427,0.148-0.847,0.271-1.165,0.615  c-0.311,0.338-0.594,0.953-0.721,2.213c-0.027,0.279-0.06,0.621-0.098,1.025c-0.016,0.176-0.191,0.266-0.343,0.279  c-2.103,0.213-3.816,0.502-5.197,0.811c-0.05-0.191-0.1-0.389-0.149-0.586c0.378-0.084,0.78-0.166,1.207-0.246  c-0.092-1.34-0.453-1.865-1.137-2.268c-0.252-0.148-0.5-0.26-0.741-0.357c-0.053-0.236-0.107-0.477-0.162-0.713  c0.391,0.164,0.808,0.314,1.204,0.549c0.897,0.527,1.323,1.254,1.432,2.68c0.98-0.168,2.078-0.321,3.308-0.448  c0.027-0.304,0.055-0.564,0.076-0.785c0.121-1.209,0.396-2.513,1.584-3.07c0.109-0.055,0.586-0.223,1.076-0.395  C55.125,64.016,55.074,64.244,55.025,64.471z M56.579,59.668c1.706-1.602,2.384-4.057,2.919-6.469  c0.045-0.199,0.219-0.264,0.367-0.229l0.027,0.009c0.062,0.018,0.227,0.065,0.308,0.092c0.122,0.027,0.233,0.035,0.338,0.027  c0.153-0.015,0.303-0.062,0.46-0.152c0.363-0.217,0.755-0.672,1.229-1.465c0.306-0.515,0.603-1.042,0.789-1.606  c0.154-0.456,0.234-0.903,0.238-1.297c0.008-0.601-0.152-1.021-0.41-1.225c-0.229-0.183-0.582-0.216-0.859-0.161  c-0.381,0.074-0.789,0.33-1.176,0.809c-0.027,0.042-0.067,0.073-0.108,0.09c-0.075,0.033-0.164,0.03-0.242,0  c-0.116-0.046-0.209-0.16-0.19-0.325c0.102-0.93-0.109-1.254-0.308-2.101c-0.224-0.964-0.099-2.047,0.088-3.085  c-1.43-0.835-3.774-1.509-6.685-1.771c-0.182,0.063-0.362,0.123-0.543,0.179c-0.719,0.228-1.422,0.418-2.047,0.594  c-0.342,0.096-0.658,0.187-0.941,0.277c-0.557,0.178-0.911,0.332-1.068,0.465c-0.037,0.05-0.087,0.083-0.142,0.1  c-0.087,0.032-0.177,0.016-0.248-0.029c-0.076-0.041-0.132-0.111-0.148-0.203c-0.013-0.058-0.009-0.12,0.021-0.181  c0.116-0.419,0.271-0.839,0.465-1.259l-0.145,0.01c-0.084,0.062-0.167,0.122-0.25,0.185c-0.426,0.325-0.807,0.661-1.141,1.008  c-0.596,0.621-1.036,1.273-1.3,1.935c-0.016,0.071-0.056,0.125-0.104,0.161c-0.071,0.059-0.162,0.074-0.245,0.056  c-0.085-0.017-0.164-0.069-0.208-0.142c-0.034-0.053-0.049-0.118-0.039-0.19c0.009-0.818,0.22-1.75,0.59-2.688  c-0.475,0.084-0.927,0.179-1.355,0.285c-0.072,0.075-0.142,0.15-0.208,0.227l-0.083,0.096c-0.388,0.455-0.695,0.924-0.907,1.401  c-0.163,0.366-0.598,0.26-0.577-0.139c0.02-0.344,0.051-0.707,0.107-1.081c-0.556,0.204-1.044,0.427-1.461,0.664  c0.186,1.062,0.316,2.153,0.091,3.126c-0.197,0.847-0.407,1.171-0.307,2.101c0.036,0.328-0.359,0.43-0.528,0.239  c-0.009-0.01-0.018-0.02-0.027-0.031c-0.38-0.471-0.806-0.719-1.204-0.788c-0.688-0.121-1.135,0.201-1.257,0.916  c-0.094,0.548,0.004,1.281,0.295,2.024c0.191,0.489,0.46,0.956,0.729,1.405c0.436,0.723,0.803,1.158,1.146,1.381  c0.299,0.195,0.591,0.236,0.944,0.135c0.016-0.006,0.034-0.012,0.053-0.018c0.047-0.014,0.111-0.027,0.188-0.039  c0.145-0.025,0.303,0.043,0.344,0.232c0.559,2.516,1.115,4.983,2.899,6.565c-0.005,0.25,0,0.517,0.014,0.797  c-0.168-0.127-0.329-0.26-0.48-0.397l0.03,0.164l0.569,3.146l0.01,0.053c0,0,0.012,0.07,0.045,0.179  c0.086,0.268,0.2,0.487,0.336,0.67c0.065,0.336,0.133,0.676,0.205,1.012c-0.31-0.205-0.598-0.482-0.854-0.918  c-0.105-0.182-0.206-0.396-0.271-0.609c0.212,0.93,0.686,2.529,1.723,5.258l0.294-0.076c0.054,0.199,0.109,0.394,0.162,0.582  l-0.239,0.062c0.512,1.322,1.147,2.889,1.935,4.744c4.488,10.568,8.767,21.873,8.767,21.873l-5.648,1.609  c0,0-4.779-12.746-6.196-16.781c-1.417-4.033-2.973-8.869-3.026-11.959c-0.065-3.766,1.635-6.016,2.006-6.459l-0.617-3.385  c-1.19-1.547-1.709-3.578-2.183-5.693c-0.021,0.004-0.044,0.006-0.066,0.008c-0.447,0.092-0.865,0.018-1.272-0.248  c-0.462-0.301-0.886-0.832-1.333-1.574c-0.289-0.479-0.57-0.977-0.774-1.496c-0.321-0.816-0.446-1.663-0.329-2.349  c0.181-1.05,0.944-1.583,1.954-1.408c0.106,0.019,0.212,0.045,0.314,0.08c-0.135-0.397-0.261-0.795-0.376-1.193  c-0.243-0.359-0.382-0.748-0.382-1.164l0.023-7.094c0.062-0.469,0.262-0.888,0.566-1.259c-0.536-4.63-1.284-12.356-1.641-21.86  c-0.114-3.018-0.188-5.601-0.233-7.805c0-0.045,0.084-0.242,0.119-0.271l2.233-2.006c0.282-0.25,0.583-0.121,0.592,0.255  l0.001,0.078c1.583-0.619,2.616-1.099,3.22-1.256c0.045-0.139,0.126-0.24,0.262-0.265c0.223-0.039,2.774-0.861,4.076-0.84  c0.064-0.099,0.174-0.165,0.297-0.165h4.392c0.193,0,0.357,0.167,0.354,0.362L53.326,2.36l2.859,0.619  c0.295-0.466,1.847,0.275,3.894,0.862c0.121,0.034,0.26,0.222,0.257,0.348c-0.004,0.136-0.014,0.426-0.031,0.852  c0.176,0.073,0.463,0.196,0.727,0.342l0.007-0.307c0.021-1.24,1.974,0.94,1.983,1.314c0.047,1.502,0.094,3.253,0.136,5.281  c0.147,7.194-0.791,18.688-1.321,24.468c0.229,0.326,0.382,0.686,0.436,1.083l0.012,7.155c-0.033,0.357-0.17,0.696-0.385,1.012  c-0.127,0.444-0.267,0.89-0.42,1.333c0.129-0.053,0.26-0.094,0.392-0.12c0.456-0.088,0.981-0.013,1.353,0.281  c0.469,0.375,0.646,1.026,0.637,1.705c-0.006,0.466-0.098,0.974-0.27,1.481c-0.203,0.607-0.518,1.172-0.843,1.721  c-0.481,0.812-0.938,1.379-1.44,1.676c-0.229,0.136-0.467,0.216-0.72,0.236c-0.151,0.01-0.304,0-0.456-0.029l-0.113-0.024  c-0.471,2.063-1.074,4.102-2.283,5.653L57.7,59.477l-0.599,3.236c0.383,0.465,2.061,2.709,1.998,6.451  c-0.056,3.092-1.609,7.928-3.027,11.961c-0.454,1.293-1.254,3.486-2.135,5.865l-0.334-0.836l-0.432-1.08l0.325-0.303l0.553,0.168  l0.042-0.111l-1.158-0.355l-0.06-0.145l1.26,0.387l0.041-0.113l-0.372-0.115l0.391-0.362l0.06,0.267l0.077-0.207l-0.312-1.351  l-0.916-3.976l-0.125-0.539l-0.343-1.481l-0.125,0.299l0.058-0.055l0.031,0.135l-0.201,0.188l-0.11,0.27l0.345-0.32l0.12,0.521  l-0.485-0.149l-0.048,0.112l0.563,0.172l0.031,0.136l-0.641-0.195l-0.047,0.111l0.717,0.221l0.188,0.812l0.027,0.113l-0.086,0.08  l-0.609,0.565l-0.867-0.266l-0.104,0.252l0.443,1.92l-0.286-0.701l-0.235-1.026l-0.08,0.19l0.031,0.144l-0.043-0.109l-0.326-0.795  c0.687-1.666,1.392-3.358,2.103-5.037c2.674-6.295,3.592-9.274,3.896-10.657c-0.008,0.012-0.018,0.022-0.026,0.034  c-0.043,0.056-0.104,0.086-0.171,0.097l-0.577,0.198c0.042-0.229,0.082-0.454,0.118-0.678l0.134-0.047l0.588-3.224  c-0.123,0.115-0.251,0.226-0.385,0.33C56.586,60.189,56.587,59.918,56.579,59.668z M61.482,43.983  c-0.143-0.352-0.439-0.701-0.875-1.031c-0.051,0.336-0.099,0.689-0.14,1.046c-0.108,0.95,0.271,1.848,0.375,2.78  C61.27,45.902,61.443,44.954,61.482,43.983z M51.661,40.706c-0.323-0.01-0.651-0.015-0.985-0.015c-0.433,0-0.857,0.009-1.273,0.026  c-0.135,0.259-0.252,0.52-0.351,0.779c0.183-0.074,0.385-0.143,0.594-0.209c0.292-0.093,0.615-0.186,0.961-0.284  C50.939,40.91,51.295,40.811,51.661,40.706z M47.462,40.862c-0.305,0.033-0.602,0.072-0.891,0.113  c-0.192,0.439-0.348,0.878-0.462,1.302c0.189-0.252,0.402-0.5,0.633-0.74C46.964,41.307,47.204,41.081,47.462,40.862z   M40.819,42.904c-0.411,0.3-0.707,0.618-0.874,0.939c0.03,1.018,0.197,2.018,0.644,2.935c0.108-0.932,0.485-1.83,0.375-2.78  C40.921,43.624,40.872,43.256,40.819,42.904z M40.479,35.219c0.208-0.146,0.433-0.28,0.674-0.407  C40.582,24.449,40.138,8.697,40.04,5.06l-1.543,1.385c0.046,2.164,0.119,4.69,0.229,7.63C39.075,23.341,39.88,30.729,40.479,35.219z   M42.222,34.335c0.883-0.334,1.87-0.588,2.851-0.778C44.528,23.198,44.079,8.75,43.954,4.57c-0.008-0.026-0.013-0.05-0.016-0.076  C43.932,4.44,43.92,4.09,43.92,4.09c0-0.025,0-0.049,0.003-0.072l-0.01-0.117l-3.096,1.177c0.007,0.028,0.011,0.057,0.013,0.09  C40.83,5.168,41.493,22.642,42.222,34.335z M46.046,33.385c0.908-0.144,1.779-0.238,2.517-0.3  c-0.095-3.819-0.154-8.173-0.189-12.379c-0.043-5.056-0.052-9.895-0.051-13.33l-0.082-4.552l-3.606,0.651l0.011,0.504  c0.038,1.27,0.133,4.433,0.268,8.465c0.013,0.033,0.02,0.072,0.022,0.114C44.936,12.558,45.437,22.873,46.046,33.385z   M49.476,33.022c0.618-0.038,1.051-0.046,1.2-0.046c0.17,0,0.703,0.012,1.453,0.062c0.068-11.632,0.424-27.884,0.482-30.504h-3.569  c-0.003,0.508-0.008,2.286-0.01,4.842C49.159,14.564,49.376,27.151,49.476,33.022z M52.837,33.089  c0.613,0.052,1.315,0.127,2.054,0.233C55.467,19.6,55.93,3.659,55.93,3.659l-2.621-0.577C53.227,6.892,52.9,22.086,52.837,33.089z   M55.957,33.496c0.73,0.133,1.473,0.298,2.178,0.506c0.684-12.851,1.396-27.123,1.484-29.556l-2.785-0.798  C56.77,6.404,56.42,21.038,55.957,33.496z M58.834,34.226c0.23,0.08,0.455,0.166,0.671,0.257c0.274-2.768,0.603-6.493,0.876-10.779  c0.044-0.843,0.085-1.678,0.123-2.5c0.202-4.333,0.335-8.31,0.418-11.23c0.014-1.251,0.021-2.514,0.014-3.782L60.27,5.838  C60.068,10.35,59.438,22.87,58.834,34.226z M60.354,34.892c0.236,0.132,0.459,0.274,0.662,0.424  c0.574-5.584,1.578-16.522,1.433-23.633c-0.041-1.963-0.087-3.667-0.132-5.136L61.73,5.94c-0.018,0.833-0.049,2.239-0.102,4.049  c-0.061,4.875-0.273,9.577-0.538,13.748C60.898,27.434,60.658,31.284,60.354,34.892z M50.676,39.981  c4.78,0,9.213,1.104,10.895,2.877l-0.01-5.59c-0.274-1.814-4.77-3.584-10.885-3.584c-6.112,0-10.601,1.771-10.875,3.584  l-0.009,5.589C41.473,41.085,45.897,39.981,50.676,39.981z M43.517,64.971l-0.062,0.148l0.583-0.201l-0.033-0.117l-0.069,0.023  l0.031-0.164c-0.025-0.094-0.047-0.184-0.07-0.271l-0.094,0.482L43.517,64.971z M43.396,65.266l-0.055,0.146l0.381-0.129  l-0.102,0.522l-0.321-0.279l-0.042,0.123l1.367,1.188l-0.075-0.223l-0.615-0.535l0.174-0.896l-0.042-0.147L43.396,65.266z   M47.617,74.551l-0.046-0.111l-0.095-0.223l-0.208,0.072l-0.717-0.623l0.18-0.932l0.113-0.039l-0.046-0.111l-1.069,0.367  l-0.105-0.09l1.128-0.389l-0.062-0.154l-0.01,0.051l-0.132,0.047l0.059-0.301l-0.084-0.207l-0.105,0.553l-0.899,0.309l-0.717-0.623  l0.182-0.932l0.897-0.312l0.37,0.324c-0.349-0.879-0.652-1.67-0.914-2.385l-0.914,0.316l-0.104-0.092l0.976-0.336l-0.127-0.351  l-0.056,0.285l-0.898,0.31l-0.717-0.621l0.182-0.935l0.898-0.31l0.205,0.179l-0.077-0.228l-1.484-1.289l-0.039,0.123l0.364,0.316  l-0.183,0.934l-0.506,0.174l-0.02,0.134l1.528-0.522l0.106,0.09l-1.654,0.567l-0.015,0.134l0.48-0.164l-0.102,0.521l-0.381-0.33  l-0.015,0.146l3.272,2.842l0.097,0.244l-0.14-0.121l-3.244-2.817l-0.01,0.149l0.343,0.297l-0.183,0.933l-0.178,0.062l0.007,0.123  l1.175-0.401l0.105,0.09l-1.272,0.438l0.009,0.125l0.075-0.025l-0.053,0.273c0.017,0.162,0.036,0.33,0.058,0.502l1.109,0.963  l3.497,3.041l0.209,0.182l0.094,0.082l-0.079-0.186l-0.029-0.066l-0.065-0.059L47.617,74.551z M43.408,73.496l0.031,0.125  l0.052,0.203l1.768,1.539l3.498,3.039l0.208,0.184l0.535,0.463l-0.188-0.455l-0.022,0.113l-0.402-0.35l0.285-0.101l-0.045-0.11  l-0.28,0.098l-0.066,0.023l-0.104-0.093l0.132-0.047l0.272-0.094l-0.047-0.111l-0.265,0.093l-0.196,0.067l-0.718-0.623l0.181-0.935  l0.196-0.065l0.166-0.06l-0.047-0.108l-0.157,0.054l-1.161,0.399l-0.106-0.093l1.227-0.422l0.15-0.053l-0.047-0.109l-0.142,0.048  l0.051-0.265l-0.084-0.199l-0.045,0.236l-0.053,0.273l-0.132,0.045l0.107-0.545L48,75.455l-0.14-0.33l-0.122-0.105l-0.42-0.367  l-3.497-3.038l-0.953-0.828c0.02,0.146,0.043,0.293,0.067,0.44l0.037-0.19l0.403,0.35l-0.39,0.136l0.022,0.119l0.473-0.162  l0.105,0.09l-0.557,0.19l0.023,0.121l0.638-0.219l0.718,0.621l-0.183,0.934L43.408,73.496z M43.543,74.031l0.054,0.207l0.367,0.318  l-0.116,0.598l0.072,0.256l0.149-0.762l0.104,0.09l-0.128,0.66l-0.117,0.039l0.033,0.117l0.824-0.283l0.105,0.09l-0.896,0.309  l0.072,0.244l0.03-0.15l0.897-0.312l0.716,0.625l-0.18,0.932L44.63,77.32l-0.185-0.16l0.07,0.221l2.047,1.779l3.497,3.039  l0.21,0.182l0.911,0.793l-0.099-0.246l-0.173-0.15l0.035-0.188l-0.082-0.203l-0.06,0.299l-0.104-0.092l0.08-0.412L50.65,81.87  l-0.5,0.17l-0.064,0.022l-0.106-0.092l0.132-0.045l0.494-0.168l-0.045-0.113l-0.486,0.17l-0.197,0.064l-0.717-0.621l0.182-0.934  l0.197-0.068l0.398-0.137l-0.045-0.113l-0.393,0.137l-1.161,0.4l-0.104-0.092l1.226-0.422l0.386-0.133L49.8,79.785l-0.379,0.131  l0.102-0.523l0.18,0.158l-0.102-0.252l-0.559-0.484l-0.419-0.364l-3.498-3.039L43.543,74.031z M44.589,77.6l0.071,0.221l0.611,0.531  L45.11,79.18l0.067,0.201l0.915-0.314l0.104,0.091l-0.98,0.338l0.038,0.112l0.01,0.031l0.079,0.229l0.06-0.312L46.3,79.25  l0.717,0.621l-0.181,0.932l-0.897,0.309l-0.233-0.2l0.016,0.045l0.065,0.187l2.083,1.811l3.498,3.041l0.21,0.182l1.238,1.076  l-0.099-0.244l-0.503-0.438l0.108-0.555l-0.083-0.207l-0.131,0.672l-0.104-0.093l0.129-0.659l0.066-0.021l-0.046-0.109l-0.696,0.236  l-0.063,0.023l-0.105-0.092l0.133-0.048l0.689-0.233l-0.045-0.113l-0.687,0.234l-0.196,0.067l-0.718-0.623l0.183-0.932l0.197-0.068  l0.604-0.209l-0.044-0.112l-0.602,0.209l-1.161,0.399l-0.105-0.092l1.227-0.425l0.57-0.194l0.043,0.039l-0.1-0.246l-0.933-0.812  l-0.418-0.364l-3.498-3.039L44.589,77.6z M45.87,81.369l0.082,0.232l0.625,0.543l-0.151,0.774l0.089,0.244l0.883-0.306l0.105,0.093  l-0.947,0.325l0.11,0.304l0.043-0.229l0.899-0.308l0.717,0.621l-0.182,0.935l-0.897,0.309l-0.139-0.121l0.086,0.236l1.984,1.725  l3.498,3.041l0.21,0.182l1.524,1.324l-0.125-0.32l-0.044,0.014l-0.717-0.622l0.172-0.89l-0.057-0.146l-0.871,0.299l-0.065,0.021  l-0.104-0.09l0.131-0.047l0.864-0.297l-0.043-0.111l-0.028,0.011l0.012-0.056l-0.083-0.211l-0.06,0.312L52.689,89.4l-0.197,0.065  l-0.717-0.623l0.183-0.934l0.196-0.066l0.699-0.241l0.158,0.135l-0.098-0.242l-1.258-1.092l-0.42-0.365l-3.498-3.039L45.87,81.369z   M47.279,85.256l0.087,0.232l0.518,0.451l-0.121,0.625l0.08,0.221l0.146-0.756l0.105,0.092l-0.128,0.662l-0.109,0.037l0.042,0.113  l0.808-0.279l0.104,0.092l-0.871,0.299l0.064,0.174l0.014-0.072l0.899-0.311l0.716,0.623l-0.181,0.932l-0.899,0.312l-0.55-1.481  l0.635,1.717l1.847,1.604l3.498,3.041l0.211,0.184l1.768,1.535l-0.139-0.357l-0.064,0.021l-0.105-0.092l0.127-0.041l-0.043-0.113  l-0.188,0.064L54.83,94.16l0.182-0.934l0.133-0.045L55.1,93.068l-1.022,0.354l-0.065,0.021l-0.107-0.09l0.133-0.047l1.021-0.354  L54.98,92.76l-0.021,0.102l-0.131,0.046l0.068-0.357l-0.08-0.211l-0.121,0.613l-0.7,0.241L53.8,93.262l-0.717-0.623l0.181-0.932  l0.197-0.068l0.701-0.242l0.436,0.379l-0.094-0.239l-1.539-1.341l-0.42-0.364l-3.498-3.039L47.279,85.256z M48.726,89.17  l0.087,0.236l0.378,0.328l-0.088,0.451l0.081,0.219l0.112-0.578l0.105,0.09l-0.129,0.66l-0.022,0.008l0.041,0.113l0.722-0.25  l0.104,0.092l-0.783,0.27l0.042,0.113l0.847-0.291l0.716,0.623l-0.182,0.932l-0.808,0.279l0.042,0.113l1.77-0.609l0.105,0.088  L50.07,92.68l-0.061-0.055l0.088,0.236l1.696,1.473l2.467,2.145l0.137-0.039L54.57,95.5l0.197-0.068l0.7-0.242l0.677,0.591  l-0.093-0.24l-1.782-1.55l-0.418-0.365l-3.497-3.041L48.726,89.17z M51.654,97.033l0.063,0.17l0.099-0.027L51.654,97.033z   M51.955,97.135l0.138-0.039l0.132-0.037l0.154-0.805l0.898-0.309l0.705,0.613l0.139-0.041l-2.461-2.14l-1.475-1.283l0.088,0.236  l0.225,0.194l-0.052,0.269l0.08,0.217l0.078-0.393l0.104,0.092l-0.1,0.517l0.086,0.231l0.625-0.217l0.104,0.092l-0.688,0.235  l0.043,0.115l0.752-0.26l0.717,0.621l-0.182,0.934l-0.713,0.244l0.043,0.113l1.674-0.574l0.104,0.09l-1.734,0.599l0.129,0.348  L51.955,97.135z M56.162,95.938l0.039-0.01l-0.025-0.066L56.162,95.938z M57.422,64.322l-0.057-0.107l-0.051,0.209L57.422,64.322z   M57.654,64.809l-0.066-0.146l-0.135-0.041l0.08-0.072l-0.057-0.112l-0.156,0.146l-0.045-0.017l-0.029,0.119l0.173,0.051  L57.654,64.809z M57.777,65.098l-0.062-0.145l-0.333-0.102l-0.168-0.054l-0.032,0.117l0.168,0.049L57.777,65.098z M57.99,72.738  l0.059-0.273l-0.031-0.139l0.076-0.07l0.041-0.203l-0.148,0.137l-0.03-0.135l0.22-0.205l0.038-0.199l-0.289,0.271L57.803,71.4  l0.432,0.133l0.021-0.119l-0.481-0.148l-0.029-0.137l0.533,0.164l0.021-0.119l-0.585-0.18l-0.215-0.926l0.695-0.646l0.291,0.088  l0.007-0.123l-1.237-0.379l-0.031-0.137l1.273,0.391l0.002-0.107l0.002-0.184l-0.135,0.125l-0.133-0.041l0.267-0.248l-0.005-0.162  l-0.396,0.369l-0.908-0.274l-0.213-0.929l0.694-0.646l0.718,0.217l-0.021-0.131l-1.568-0.479L56.73,66.75l-0.032-0.135l0.134,0.041  l1.512,0.461l-0.023-0.133l-0.346-0.105l0.272-0.252l-0.032-0.139l-0.372,0.35l-0.134-0.041l0.475-0.441l-0.033-0.133l-0.573,0.533  l-0.709-0.217l-0.162-0.047l-0.093,0.279l0.017,0.071l0.062,0.273l0.979,4.241L57.99,72.738z M57.165,75.865l0.065-0.227  l0.092-0.316L56.6,75.102l-0.031-0.135l0.787,0.242l0.033-0.117l-0.852-0.258l-0.215-0.928l0.695-0.648l0.793,0.242l0.029-0.115  c0.029-0.127,0.061-0.252,0.088-0.375l-0.389-1.691l-0.918-3.975l-0.082-0.354l-0.074,0.217l0.086,0.369l0.025,0.113l-0.085,0.08  l-0.331,0.309l-0.09,0.246l0.351-0.326l0.187-0.174l0.031,0.137l-0.287,0.268l-0.205,0.188l-0.098-0.028l-0.041,0.116l0.237,0.07  l0.577,0.176l0.029,0.135l-0.642-0.194l-0.246-0.076l-0.075,0.211l0.086-0.08l0.198,0.061l0.711,0.217l0.214,0.925l-0.695,0.647  l-0.709-0.215l-0.199-0.061l-0.062-0.279l-0.078,0.199l0.103,0.443l0.062,0.272l0.98,4.242l0.375,1.625l0.07-0.229l-0.1-0.43  L57.165,75.865z M55.659,80.482l0.073-0.215L55.672,80l0.227-0.209l0.082-0.242l-0.34,0.318l-0.031-0.137l0.455-0.424l0.052-0.154  l-0.689-0.213l-0.03-0.135l0.76,0.231l0.039-0.115l-0.83-0.252l-0.213-0.928l0.693-0.646l0.858,0.262l0.099-0.309l-0.437-1.895  l-0.918-3.973l-0.125-0.541l-0.048-0.205l-0.077,0.198l0.18,0.779l0.026,0.11l-0.086,0.078l-0.609,0.568L54.6,72.135l-0.045,0.115  l0.52,0.158l0.576,0.176l0.031,0.135l-0.644-0.195l-0.529-0.162L54.4,72.624l0.139-0.129l0.133,0.043l-0.381,0.354l-0.109,0.268  l0.623-0.58l0.199,0.061l0.708,0.217l0.214,0.927l-0.693,0.646l-0.709-0.217l-0.199-0.061l-0.198-0.857l-0.08,0.191l0.238,1.031  l0.063,0.271l0.979,4.244L55.659,80.482z M54.404,83.973l0.117-0.32l-0.055,0.054l-0.031-0.138l0.178-0.166l0.092-0.252  l-0.301,0.281l-0.119-0.518l0.455,0.139l0.041-0.111l-0.529-0.164l-0.029-0.135l0.601,0.185l0.04-0.113l-0.674-0.207l-0.213-0.924  l0.694-0.647l0.749,0.229l0.04-0.113l-1.729-0.527l-0.03-0.137l1.801,0.551l0.084-0.239l-0.394-1.701l-0.918-3.974L54.15,74.48  l-0.186-0.799l-0.08,0.189l0.038,0.162l-0.096-0.027l-0.046,0.109l0.173,0.055l0.03,0.135l-0.25-0.076l-0.047,0.111l0.328,0.102  l0.188,0.812l0.025,0.113l-0.084,0.078l-0.609,0.57l-0.492-0.15l-0.047,0.109l0.902,0.274l0.576,0.181l0.03,0.133l-0.644-0.195  l-0.914-0.281L52.9,76.197l0.328,0.102l-0.391,0.361l-0.047-0.203l-0.08,0.191l0.396,1.711l0.062,0.271l0.979,4.244L54.404,83.973z   M43.986,65.189l-0.154,0.797l-0.105-0.092l0.127-0.66L43.986,65.189z M47.503,74.334l0.067,0.105l-0.029,0.01l-0.065,0.021  l-0.105-0.091L47.503,74.334z M43.857,66.486l0.402,0.35l-0.504,0.174L43.857,66.486z M43.492,67.102l0.156-0.797l0.105,0.092  l-0.128,0.66L43.492,67.102z M44.668,70.939L43.77,71.25l-0.717-0.623l0.182-0.934l0.897-0.31l0.717,0.625L44.668,70.939z   M45.03,69.076l-0.102,0.521l-0.402-0.351L45.03,69.076z M43.415,68.762l0.403,0.35l-0.504,0.173L43.415,68.762z M45.959,70.494  l-0.716-0.621l0.163-0.836C45.575,69.492,45.758,69.977,45.959,70.494z M45.163,70.281l0.402,0.35l-0.504,0.172L45.163,70.281z   M45.775,70.814l-1.795,0.617l-0.105-0.091l1.796-0.618L45.775,70.814z M45.293,68.986l-0.155,0.795l-0.105-0.092l0.128-0.66  L45.293,68.986z M44.799,70.895l0.155-0.795l0.105,0.09l-0.129,0.66L44.799,70.895z M43.102,69.738l-0.154,0.797l-0.104-0.092  l0.128-0.658L43.102,69.738z M43.05,69.377l0.155-0.799l0.104,0.092l-0.126,0.66L43.05,69.377z M43.544,67.465L43.39,68.26  l-0.105-0.09l0.128-0.66L43.544,67.465z M46.337,72.869l-0.102,0.523l-0.402-0.349L46.337,72.869z M44.588,71.35l-0.102,0.523  l-0.402-0.35L44.588,71.35z M46.6,72.779l-0.155,0.795l-0.105-0.092l0.128-0.656L46.6,72.779z M44.852,71.26l-0.155,0.795  l-0.104-0.092l0.127-0.658L44.852,71.26z M43.537,73.705l-0.098-0.084l1.789-0.625l0.105,0.092L43.537,73.705z M45.974,74.734  l-0.897,0.309l-0.718-0.623l0.182-0.932l0.898-0.309l0.717,0.622L45.974,74.734z M44.722,72.555l0.402,0.351L44.62,73.08  L44.722,72.555z M44.146,73.625l-0.102,0.521l-0.402-0.351L44.146,73.625z M46.47,74.076l0.402,0.35l-0.504,0.172L46.47,74.076z   M47.082,74.609l-1.796,0.617l-0.104-0.095l1.796-0.616L47.082,74.609z M46.105,74.688l0.154-0.795l0.104,0.092l-0.127,0.66  L46.105,74.688z M44.408,73.535l-0.154,0.793L44.15,74.24l0.127-0.662L44.408,73.535z M44.357,73.168l0.154-0.793l0.105,0.09  l-0.128,0.658L44.357,73.168z M47.723,76.254l-0.898,0.311l-0.717-0.623l0.181-0.934l0.898-0.307l0.63,0.545l0.088,0.074  l-0.023,0.117L47.723,76.254z M47.642,76.664l-0.102,0.523l-0.4-0.349L47.642,76.664z M45.895,75.145l-0.102,0.521l-0.402-0.348  L45.895,75.145z M47.906,76.574l-0.155,0.795l-0.105-0.09l0.128-0.662L47.906,76.574z M46.157,75.055l-0.154,0.795l-0.106-0.09  l0.129-0.662L46.157,75.055z M50.698,81.977l-0.103,0.525l-0.401-0.352L50.698,81.977z M44.28,74.832l0.401,0.348l-0.503,0.174  L44.28,74.832z M47.28,78.529l-0.898,0.309l-0.716-0.623l0.18-0.93l0.898-0.312l0.718,0.623L47.28,78.529z M46.028,76.35L46.43,76.7  l-0.504,0.174L46.028,76.35z M45.453,77.418l-0.102,0.525l-0.403-0.353L45.453,77.418z M47.777,77.871l0.403,0.348l-0.504,0.174  L47.777,77.871z M46.64,76.881L44.844,77.5l-0.104-0.09l1.795-0.621L46.64,76.881z M48.39,78.402l-1.797,0.619l-0.105-0.092  l1.796-0.619L48.39,78.402z M47.412,78.482l0.155-0.795l0.104,0.09l-0.126,0.66L47.412,78.482z M45.715,77.326l-0.155,0.799  l-0.104-0.094l0.128-0.658L45.715,77.326z M45.663,76.965l0.156-0.797l0.104,0.092l-0.128,0.658L45.663,76.965z M49.029,80.049  l-0.898,0.309l-0.717-0.623l0.182-0.932l0.898-0.311l0.629,0.549l0.088,0.076l-0.023,0.113L49.029,80.049z M48.949,80.459  l-0.102,0.521l-0.402-0.349L48.949,80.459z M47.201,78.938l-0.102,0.523l-0.402-0.35L47.201,78.938z M49.212,80.367l-0.155,0.797  l-0.104-0.092l0.128-0.66L49.212,80.367z M47.463,78.848l-0.154,0.797l-0.105-0.092l0.129-0.66L47.463,78.848z M49.266,79.457  l0.05-0.25l0.104,0.09l-0.075,0.389l-0.054,0.273l-0.13,0.043L49.266,79.457z M52.004,85.771l-0.102,0.524l-0.4-0.353L52.004,85.771  z M50.574,83.252l0.047-0.25l0.105,0.09l-0.074,0.389l-0.055,0.271l-0.131,0.045L50.574,83.252z M50.729,83.707l0.104-0.523  l0.402,0.351L50.729,83.707z M48.771,82.643l-0.155,0.797l-0.104-0.092l0.128-0.66L48.771,82.643z M50.518,84.162l-0.152,0.797  l-0.106-0.094l0.129-0.658L50.518,84.162z M48.508,82.732l-0.102,0.522l-0.403-0.35L48.508,82.732z M50.256,84.252l-0.102,0.525  l-0.402-0.353L50.256,84.252z M50.335,83.844l-0.897,0.309l-0.717-0.622l0.182-0.933l0.897-0.309l0.629,0.545l0.088,0.076  l-0.022,0.113L50.335,83.844z M45.484,79.148l0.102-0.525l0.402,0.35L45.484,79.148z M45.222,79.238l0.155-0.797l0.104,0.094  l-0.129,0.658L45.222,79.238z M47.153,81.076l0.898-0.309l0.717,0.623l-0.182,0.932l-0.897,0.311l-0.718-0.623L47.153,81.076z   M47.232,80.666l0.102-0.523l0.403,0.353L47.232,80.666z M46.657,81.734l-0.402-0.349l0.503-0.174L46.657,81.734z M49.083,81.664  l0.401,0.35l-0.503,0.174L49.083,81.664z M46.045,81.203l1.797-0.615l0.105,0.088l-1.797,0.619L46.045,81.203z M47.794,82.725  l1.796-0.619l0.105,0.093l-1.798,0.616L47.794,82.725z M48.718,82.279l0.155-0.799l0.104,0.094l-0.128,0.658L48.718,82.279z   M47.021,81.123l-0.154,0.795l-0.104-0.09l0.127-0.66L47.021,81.123z M46.97,80.758l0.155-0.795l0.104,0.092l-0.128,0.656  L46.97,80.758z M53.574,89.477l-0.154,0.797l-0.105-0.094l0.129-0.658L53.574,89.477z M53.311,89.568l-0.1,0.52l-0.402-0.348  L53.311,89.568z M51.881,87.047l0.049-0.25l0.104,0.092l-0.075,0.385l-0.053,0.273l-0.131,0.047L51.881,87.047z M52.037,87.502  l0.102-0.523l0.402,0.351L52.037,87.502z M50.077,86.436l-0.155,0.797l-0.105-0.092l0.128-0.658L50.077,86.436z M51.826,87.957  l-0.154,0.795l-0.105-0.09l0.129-0.66L51.826,87.957z M52.115,87.729l-1.162,0.402l-0.104-0.092l1.226-0.424l0.571-0.195l0.104,0.09  L52.115,87.729z M49.815,86.527l-0.102,0.521L49.31,86.7L49.815,86.527z M51.562,88.047L51.46,88.57l-0.401-0.351L51.562,88.047z   M51.643,87.639l-0.897,0.31l-0.717-0.623l0.181-0.935l0.898-0.309l0.629,0.549l0.089,0.074l-0.022,0.115L51.643,87.639z   M48.277,84.553l0.154-0.797l0.106,0.092l-0.129,0.66L48.277,84.553z M48.328,84.916l-0.154,0.795l-0.105-0.09l0.127-0.66  L48.328,84.916z M50.024,86.072l0.156-0.797l0.104,0.092l-0.127,0.66L50.024,86.072z M51.002,85.99l-1.797,0.617l-0.104-0.09  l1.795-0.619L51.002,85.99z M49.253,84.471l-1.797,0.619l-0.104-0.094l1.796-0.617L49.253,84.471z M50.39,85.459l0.403,0.35  l-0.505,0.174L50.39,85.459z M48.065,85.006l-0.101,0.525l-0.403-0.352L48.065,85.006z M48.641,83.939l0.402,0.35l-0.504,0.172  L48.641,83.939z M49.894,86.117l-0.898,0.311l-0.717-0.623l0.183-0.934l0.897-0.311l0.717,0.625L49.894,86.117z M46.893,82.418  l0.402,0.352l-0.504,0.172L46.893,82.418z M46.527,83.033l0.155-0.797l0.104,0.092l-0.128,0.658L46.527,83.033z M54.881,93.27  l-0.154,0.797l-0.104-0.09l0.127-0.66L54.881,93.27z M54.617,93.361l-0.102,0.524l-0.402-0.352L54.617,93.361z M53.186,90.84  l0.051-0.248l0.104,0.09l-0.074,0.387l-0.054,0.273l-0.132,0.045L53.186,90.84z M53.344,91.297l0.102-0.521l0.402,0.349  L53.344,91.297z M51.383,90.232l-0.154,0.795l-0.104-0.092l0.128-0.662L51.383,90.232z M53.133,91.75l-0.154,0.799l-0.104-0.094  l0.128-0.658L53.133,91.75z M53.422,91.523l-1.162,0.399l-0.104-0.092l1.225-0.42l0.571-0.199l0.104,0.095L53.422,91.523z   M51.121,90.322l-0.104,0.521l-0.4-0.348L51.121,90.322z M52.869,91.842l-0.102,0.523l-0.401-0.35L52.869,91.842z M52.949,91.432  l-0.898,0.31l-0.717-0.623l0.182-0.935l0.898-0.307l0.629,0.547l0.088,0.076l-0.023,0.113L52.949,91.432z M49.583,88.348  l0.156-0.797l0.104,0.09l-0.128,0.662L49.583,88.348z M49.635,88.711l-0.155,0.797l-0.104-0.092l0.128-0.66L49.635,88.711z   M51.332,89.867l0.154-0.797l0.104,0.092l-0.129,0.66L51.332,89.867z M52.311,89.787l-1.799,0.615l-0.104-0.092l1.796-0.617  L52.311,89.787z M50.561,88.266l-1.796,0.617l-0.104-0.09l1.795-0.617L50.561,88.266z M51.695,89.254l0.402,0.35l-0.502,0.172  L51.695,89.254z M49.373,88.801l-0.102,0.523l-0.402-0.35L49.373,88.801z M49.948,87.732l0.401,0.352l-0.503,0.174L49.948,87.732z   M51.2,89.912l-0.898,0.309L49.586,89.6l0.18-0.934l0.899-0.311l0.716,0.623L51.2,89.912z M48.2,86.213l0.401,0.35l-0.503,0.174  L48.2,86.213z M54.493,94.635l0.048-0.25l0.105,0.09l-0.076,0.39l-0.053,0.271l-0.131,0.047L54.493,94.635z M54.648,95.09  l0.104-0.523l0.4,0.351L54.648,95.09z M52.689,94.025l-0.154,0.797l-0.104-0.094l0.127-0.66L52.689,94.025z M54.438,95.545  l-0.151,0.797L54.18,96.25l0.129-0.66L54.438,95.545z M54.729,95.32l-1.162,0.396l-0.104-0.09l1.227-0.422l0.568-0.197l0.105,0.093  L54.729,95.32z M52.428,94.115l-0.102,0.523l-0.402-0.351L52.428,94.115z M54.176,95.635l-0.102,0.523l-0.402-0.35L54.176,95.635z   M54.254,95.227l-0.896,0.31l-0.717-0.623l0.183-0.931l0.897-0.312l0.629,0.549l0.088,0.074l-0.022,0.115L54.254,95.227z   M50.889,92.141l0.155-0.795l0.104,0.09l-0.127,0.658L50.889,92.141z M50.941,92.504l-0.154,0.797l-0.105-0.092l0.129-0.658  L50.941,92.504z M52.639,93.66l0.154-0.795l0.105,0.09l-0.129,0.66L52.639,93.66z M53.615,93.58l-1.797,0.619l-0.104-0.094  l1.796-0.617L53.615,93.58z M53.003,93.047l0.401,0.35L52.9,93.57L53.003,93.047z M50.68,92.596l-0.103,0.523l-0.402-0.352  L50.68,92.596z M51.255,91.527l0.401,0.352l-0.504,0.172L51.255,91.527z M52.507,93.705l-0.897,0.312l-0.717-0.625l0.181-0.933  l0.897-0.312l0.717,0.623L52.507,93.705z M49.505,90.008l0.402,0.35l-0.503,0.175L49.505,90.008z M52.248,96.301l-0.155,0.795  l-0.104-0.092l0.13-0.658L52.248,96.301z M52.195,95.936l0.156-0.797l0.104,0.092l-0.127,0.66L52.195,95.936z M51.883,96.914  l-0.402-0.35l0.504-0.174L51.883,96.914z M52.459,95.844l0.102-0.521l0.402,0.348L52.459,95.844z M50.711,94.324l0.102-0.523  l0.402,0.35L50.711,94.324z M57.537,67.121l-0.594,0.555l-0.031-0.137l0.49-0.459L57.537,67.121z M58.059,69.381l-0.594,0.555  l-0.031-0.139l0.492-0.455L58.059,69.381z M57.793,69.301l-0.391,0.359l-0.119-0.518L57.793,69.301z M57.271,67.041l-0.392,0.363  l-0.12-0.519L57.271,67.041z M57.273,75.436l-0.043,0.203l-0.418,0.389l-0.031-0.135L57.273,75.436z M57.141,75.393l-0.39,0.367  l-0.12-0.521L57.141,75.393z M56.363,70.961l-0.592,0.553l-0.031-0.135l0.49-0.459L56.363,70.961z M57.057,72.893l0.594-0.553  l0.031,0.135l-0.492,0.459L57.057,72.893z M56.887,73.219l-0.594,0.553l-0.033-0.137l0.492-0.457L56.887,73.219z M56.619,73.135  L56.229,73.5l-0.119-0.52L56.619,73.135z M56.924,72.852l-0.908-0.276l-0.213-0.927L56.496,71l0.91,0.277l0.213,0.926L56.924,72.852  z M57.713,72.609l0.12,0.52l-0.509-0.154L57.713,72.609z M56.098,70.879l-0.389,0.363l-0.121-0.52L56.098,70.879z M56.535,70.637  l0.594-0.555l0.031,0.135l-0.492,0.459L56.535,70.637z M56.279,68.459l0.392-0.363l0.118,0.519L56.279,68.459z M57.191,70.352  l0.119,0.521l-0.51-0.154L57.191,70.352z M55.624,70.607l-0.067-0.021l-0.031-0.135l0.135,0.039l1.683,0.516l0.033,0.136  L55.624,70.607z M57.863,73.266l-0.023,0.119l-1.762-0.541l-0.031-0.135L57.863,73.266z M55.967,79.232l-0.39,0.36l-0.119-0.518  L55.967,79.232z M55.189,74.799l-0.594,0.553l-0.031-0.137l0.494-0.457L55.189,74.799z M55.884,76.73l0.595-0.554l0.029,0.136  l-0.492,0.459L55.884,76.73z M55.711,77.055l-0.592,0.555l-0.031-0.137l0.49-0.459L55.711,77.055z M56.721,77.24l-1.814-0.557  l-0.031-0.138l1.816,0.556L56.721,77.24z M55.445,76.973l-0.389,0.365l-0.121-0.52L55.445,76.973z M55.75,76.689l-0.908-0.277  l-0.213-0.926l0.695-0.648l0.906,0.279l0.215,0.926L55.75,76.689z M56.539,76.449l0.119,0.518l-0.508-0.154L56.539,76.449z   M54.924,74.717l-0.389,0.363l-0.121-0.52L54.924,74.717z M55.248,71.836l0.188-0.174l0.03,0.135l-0.288,0.27l-0.203,0.189  l-0.133-0.041L55.248,71.836z M55.361,74.473l0.594-0.555l0.033,0.139l-0.492,0.457L55.361,74.473z M55.107,72.297l0.39-0.365  l0.12,0.521L55.107,72.297z M56.018,74.191l0.121,0.518l-0.511-0.154L56.018,74.191z M54.449,74.445l-0.065-0.021l-0.032-0.137  l0.135,0.041l1.685,0.516l0.031,0.138L54.449,74.445z M54.018,78.635l-0.594,0.555l-0.029-0.137l0.49-0.459L54.018,78.635z   M54.711,80.568l0.592-0.553l0.031,0.135l-0.491,0.457L54.711,80.568z M54.539,80.893l-0.594,0.551l-0.031-0.133l0.49-0.457  L54.539,80.893z M53.883,81.176l-0.119-0.518l0.508,0.152L53.883,81.176z M54.15,78.676l0.908,0.279l0.215,0.926l-0.695,0.646  l-0.909-0.275l-0.214-0.928L54.15,78.676z M54.977,80.65l0.391-0.365l0.119,0.52L54.977,80.65z M53.361,78.918l-0.119-0.52  l0.509,0.153L53.361,78.918z M54.074,75.674l0.188-0.174l0.031,0.135l-0.289,0.271l-0.203,0.188l-0.133-0.041L54.074,75.674z   M54.189,78.311l0.592-0.553l0.031,0.135l-0.492,0.459L54.189,78.311z M53.312,78.168l1.684,0.518l0.031,0.133l-1.75-0.532  l-0.066-0.021l-0.031-0.138L53.312,78.168z M53.828,76.479l0.709,0.217l0.215,0.927l-0.695,0.647l-0.709-0.217l-0.199-0.062  l-0.215-0.925l0.695-0.647L53.828,76.479z M53.936,76.135l0.39-0.365l0.118,0.521L53.936,76.135z M54.455,78.393l0.391-0.365  l0.119,0.521L54.455,78.393z M53.496,76.377l-0.592,0.555l-0.033-0.137l0.492-0.459L53.496,76.377z M51.312,55.199  c6.773-0.041,4.908,6.908,3.944,11.1c-0.43,1.877-0.881,3.637-1.354,5.07c-0.108,0.33-0.305,0.188-0.196-0.143  c0.469-1.42,0.862-3.195,1.288-5.056c1.045-4.551,2.373-10.407-3.617-10.371c-0.148,0-0.432-0.061-0.432-0.312  C50.945,55.24,51.175,55.201,51.312,55.199z M50.022,55.199c0.138,0.002,0.368,0.041,0.368,0.289c0,0.252-0.284,0.312-0.433,0.312  c-5.991-0.036-4.663,5.82-3.618,10.371c0.427,1.859,0.819,3.636,1.289,5.056c0.108,0.33-0.088,0.473-0.198,0.143  c-0.473-1.434-0.924-3.193-1.355-5.07C45.114,62.107,43.246,55.158,50.022,55.199z"/></svg>